<svg viewBox="0 0 208 128" xmlns="http://www.w3.org/2000/svg" xml:space="preserve">
  <path fill="none" stroke="#000" stroke-width="2"
    d="M15 5h178a10 10 0 0 1 10 10v98a10 10 0 0 1-10 10H15a10 10 0 0 1-10-10V15A10 10 0 0 1 15 5z" />
  <path id='path' fill="#09f" d="M30 98V30h20l20 25 20-25h20v68H90V59L70 84 50 59v39H30z" />
  <path id='path' fill="#09f" d="M155 30l30 33h-20v35h-20v-35h-20l30 -33z" />

  <style>
    @media (prefers-color-scheme: dark) {
      path{stroke: #fff;}
    }
  </style>
</svg>